<svg width="148" height="92" viewBox="0 0 148 92" fill="none" xmlns="http://www.w3.org/2000/svg">
<g id="evcharging">
<g id="evcharging_2" clip-path="url(#clip0_48_7577)">
<g id="icon">
<path id="Vector" d="M2.13 36.035C2.13 34.935 3.03 34.035 4.13 34.035H21.18C22.28 34.035 23.18 34.935 23.18 36.035V67.235C23.18 67.785 22.73 68.235 22.18 68.235H3.13C2.58 68.235 2.13 67.785 2.13 67.235V36.035Z" fill="white"/>
<path id="Vector_2" d="M15.91 37.545H9.39C8.28543 37.545 7.39 38.4404 7.39 39.545V48.695C7.39 49.7996 8.28543 50.695 9.39 50.695H15.91C17.0146 50.695 17.91 49.7996 17.91 48.695V39.545C17.91 38.4404 17.0146 37.545 15.91 37.545Z" fill="#435460"/>
<path id="Vector_3" d="M16.17 37.545H9.15001V50.695H16.17V37.545Z" fill="#2A353D"/>
<path id="Vector_4" d="M12.65 47.195C14.1025 47.195 15.28 46.0175 15.28 44.565C15.28 43.1125 14.1025 41.935 12.65 41.935C11.1975 41.935 10.02 43.1125 10.02 44.565C10.02 46.0175 11.1975 47.195 12.65 47.195Z" fill="#4FFFC3"/>
<path id="Vector_5" d="M12.65 44.565V59.365C12.65 63.785 16.23 67.365 20.65 67.365H28.33C32.75 67.365 36.33 63.785 36.33 59.365V56.075C36.33 51.655 39.91 48.075 44.33 48.075H47.73" stroke="#111518" stroke-width="2" stroke-linecap="round"/>
<g id="Group" opacity="0.8">
<path id="Vector_6" d="M54.37 68.395H116.69C118.1 68.395 119.24 69.535 119.24 70.945C119.24 72.355 118.1 73.495 116.69 73.495H54.37C52.96 73.495 51.82 72.355 51.82 70.945C51.82 69.535 52.96 68.395 54.37 68.395Z" fill="#C3CED5"/>
</g>
<path id="Vector_7" d="M51.14 52.205H61.36V70.665C61.36 72.235 60.07 73.505 58.49 73.505H54.02C52.43 73.505 51.15 72.235 51.15 70.665V52.205H51.14Z" fill="#001346"/>
<path id="Vector_8" d="M110.76 52.205H120.98V70.665C120.98 72.235 119.69 73.505 118.11 73.505H113.64C112.05 73.505 110.77 72.235 110.77 70.665V52.205H110.76Z" fill="#001346"/>
<path id="Vector_9" d="M108.8 18.135H63.33C61.2 18.135 59.35 19.615 58.86 21.705L55.99 34.095C55.73 35.205 55.19 36.895 54.42 37.735L48.95 43.045C48.17 43.895 47.73 45.015 47.73 46.175V61.865C47.73 64.055 49.49 65.825 51.66 65.825H120.46C122.63 65.825 124.39 64.055 124.39 61.865V46.175C124.39 45.015 123.96 43.895 123.17 43.045L117.7 37.735C116.93 36.895 116.39 35.215 116.13 34.095L113.26 21.705C112.77 19.615 110.92 18.135 108.79 18.135H108.8Z" fill="white"/>
<path id="Vector_10" d="M112.09 36.875H60.03C59.4 36.875 58.92 36.295 59.05 35.675L61.83 22.345C62.13 21.365 63.02 20.695 64.03 20.695H108.1C109.08 20.695 109.95 21.335 110.27 22.285C110.28 22.305 110.28 22.325 110.29 22.345L113.07 35.675C113.2 36.295 112.72 36.875 112.09 36.875Z" fill="#546978"/>
<g id="Group_2">
<path id="Vector_11" d="M110.27 22.285L73.71 36.875H60.03C59.4 36.875 58.92 36.295 59.05 35.675L61.83 22.345C62.13 21.365 63.02 20.695 64.03 20.695H108.1C109.08 20.695 109.95 21.335 110.27 22.285Z" fill="#C3CED5"/>
</g>
<path id="Vector_12" d="M52.84 48.435C52.84 46.935 54.31 45.885 55.73 46.355L64.12 49.155C65.02 49.455 65.62 50.295 65.62 51.235V53.425C65.62 54.635 64.64 55.615 63.43 55.615H55.04C53.83 55.615 52.85 54.635 52.85 53.425V48.435H52.84Z" fill="#C3CED5"/>
<path id="Vector_13" d="M106.5 51.235C106.5 50.295 107.1 49.455 108 49.155L116.39 46.355C117.81 45.885 119.28 46.935 119.28 48.435V53.425C119.28 54.635 118.3 55.615 117.09 55.615H108.7C107.49 55.615 106.51 54.635 106.51 53.425V51.235H106.5Z" fill="#C3CED5"/>
<path id="Vector_14" fill-rule="evenodd" clip-rule="evenodd" d="M47.73 61.575C47.81 63.945 49.54 65.835 51.66 65.835H120.46C122.58 65.835 124.31 63.945 124.39 61.575H47.73Z" fill="#91A5B3"/>
<path id="Vector_15" d="M47.73 33.765C47.73 32.665 48.63 31.765 49.73 31.765H53.61C54.63 31.765 55.49 32.535 55.6 33.545L56.01 37.215C56.14 38.395 55.21 39.435 54.02 39.435H49.74C48.64 39.435 47.74 38.535 47.74 37.435V33.765H47.73Z" fill="white"/>
<path id="Vector_16" d="M116.53 33.545C116.64 32.535 117.5 31.765 118.52 31.765H122.4C123.5 31.765 124.4 32.665 124.4 33.765V37.435C124.4 38.535 123.5 39.435 122.4 39.435H118.12C116.93 39.435 116 38.395 116.13 37.215L116.54 33.545H116.53Z" fill="white"/>
<path id="Vector_17" d="M100.54 55.635C100.54 56.095 100.18 56.485 99.71 56.515L86.05 57.315L72.39 56.515C71.93 56.485 71.56 56.105 71.56 55.635C71.56 55.165 71.95 54.755 72.44 54.755H99.65C100.13 54.755 100.53 55.145 100.53 55.635H100.54Z" fill="#C3CED5"/>
</g>
</g>
</g>
<defs>
<clipPath id="clip0_48_7577">
<rect width="148" height="82.27" fill="white" transform="translate(0 4.86499)"/>
</clipPath>
</defs>
</svg>
