<svg width="148" height="92" viewBox="0 0 148 92" fill="none" xmlns="http://www.w3.org/2000/svg">
<g id="smarthome">
<g id="smarthome_2">
<g id="icon">
<g id="Bulb">
<path id="Vector" fill-rule="evenodd" clip-rule="evenodd" d="M42.2 36.475C42.2 40.475 40.8 44.075 38.4 46.875C38.2 47.175 38 47.375 37.7 47.675H15.5C15.3 47.375 15.1 47.175 14.8 46.875C12.4 44.075 11 40.475 11 36.475C11 27.675 18 20.575 26.6 20.575C35.2 20.575 42.2 27.675 42.2 36.475Z" fill="#FF993C"/>
<g id="Group">
<path id="Vector_2" d="M37.8 47.675C36.6 49.175 35.6 50.875 35.3 52.875L34 60.4751C33.4 63.9751 30.3 66.5751 26.7 66.5751C23.1 66.5751 20.1 63.9751 19.4 60.4751L18 52.875C17.7 50.975 16.7 49.275 15.5 47.675H37.8Z" fill="#FFCA46"/>
</g>
<path id="Vector_3" d="M24.5 74.775H28.6V75.075C28.6 76.175 27.7 77.175 26.5 77.175C25.3 77.175 24.4 76.275 24.4 75.075C24.5 75.075 24.5 74.775 24.5 74.775Z" fill="#866000"/>
<path id="Vector_4" d="M21.6 66.375C21.6 65.775 22 65.375 22.6 65.375H30.6C31.1 65.375 31.6 65.775 31.6 66.375V70.375C31.6 73.175 29.4 75.375 26.6 75.375C23.8 75.375 21.6 73.175 21.6 70.375V66.375Z" fill="#D19600"/>
</g>
<g id="Hub">
<path id="Vector_5" d="M82.4 19.575H125C129.3 19.575 132.9 23.075 132.9 27.475V69.975C132.9 74.275 129.4 77.875 125 77.875H82.4C78.1 77.875 74.5 74.375 74.5 69.975V27.475C74.5 23.075 78 19.575 82.4 19.575Z" fill="white"/>
<path id="Vector_6" d="M82.9 23.175H124.4C127 23.175 129.2 25.275 129.2 27.975V69.475C129.2 72.075 127.1 74.275 124.4 74.275H82.9C80.3 74.275 78.1 72.175 78.1 69.475V27.975C78.1 25.375 80.3 23.175 82.9 23.175Z" stroke="#F3F5F7" stroke-width="1.37"/>
<path id="Vector_7" d="M124.2 60.575C125.028 60.575 125.7 59.9034 125.7 59.075C125.7 58.2466 125.028 57.575 124.2 57.575C123.372 57.575 122.7 58.2466 122.7 59.075C122.7 59.9034 123.372 60.575 124.2 60.575Z" fill="#19FFB0"/>
<path id="Vector_8" fill-rule="evenodd" clip-rule="evenodd" d="M102.4 46.575C103.2 46.475 104 46.475 104.9 46.575L106.1 46.675H106.2C106.3 46.675 106.5 46.675 106.6 46.775C106.7 46.775 106.9 46.975 106.9 47.175C106.9 47.375 106.8 47.475 106.6 47.575C106.5 47.575 106.3 47.575 106.2 47.575H101.2C101.1 47.575 100.9 47.575 100.8 47.575C100.6 47.575 100.5 47.375 100.5 47.175C100.5 46.975 100.6 46.875 100.8 46.775C100.9 46.775 101 46.775 101.2 46.675H101.3L102.4 46.575ZM107.6 49.675C107.8 49.675 107.9 49.675 108.1 49.675C108.3 49.675 108.4 49.475 108.4 49.275C108.4 49.075 108.3 48.975 108.1 48.875C108 48.875 107.8 48.875 107.7 48.875H99.8C99.7 48.875 99.5 48.875 99.4 48.875C99.2 48.875 99.1 49.075 99.1 49.275C99.1 49.475 99.2 49.575 99.4 49.675C99.5 49.675 99.7 49.675 99.8 49.675L103.3 49.875C103.6 49.875 103.9 49.875 104.2 49.875L107.6 49.675ZM108.3 51.575C108.5 51.575 108.6 51.575 108.7 51.475C108.9 51.375 109 51.275 109 51.075C109 50.875 108.9 50.775 108.7 50.675C108.6 50.675 108.4 50.675 108.3 50.675C108.3 50.675 108.3 50.675 108.2 50.675L104.1 51.075C103.8 51.075 103.4 51.075 103 51.075L99 50.775C99 50.775 99 50.775 98.9 50.775C98.8 50.775 98.6 50.775 98.5 50.775C98.3 50.775 98.2 50.975 98.2 51.175C98.2 51.375 98.3 51.475 98.5 51.575C98.6 51.575 98.7 51.575 98.9 51.675L102.8 52.275C103.3 52.375 103.7 52.375 104.2 52.275L108.3 51.575ZM102.8 54.475C103.3 54.575 103.9 54.575 104.4 54.475L108 53.575H108.1C108.3 53.575 108.3 53.475 108.4 53.475C108.6 53.475 108.7 53.275 108.7 53.075C108.7 52.875 108.6 52.775 108.4 52.675C108.3 52.675 108.1 52.675 108 52.675C108 52.675 108 52.675 107.9 52.675L104 53.375C103.7 53.475 103.3 53.475 103 53.375L99.1 52.675C99.1 52.675 99.1 52.675 99 52.675C98.9 52.675 98.7 52.575 98.6 52.675C98.4 52.675 98.3 52.875 98.3 53.075C98.3 53.275 98.4 53.375 98.6 53.475C98.7 53.475 98.8 53.475 98.9 53.575H99L102.8 54.475ZM107.4 55.775C107.3 55.775 107.2 55.875 107 55.975L104.7 56.775C104 56.975 103.3 56.975 102.6 56.775L100.3 55.975C100.1 55.875 100 55.875 99.9 55.775C99.7 55.675 99.6 55.575 99.6 55.375C99.6 55.175 99.7 55.075 99.9 54.975C100 54.975 100.2 54.975 100.3 54.975C100.3 54.975 100.3 54.975 100.4 54.975L102.8 55.675C103.4 55.875 104 55.875 104.6 55.675L107 55.075C107 55.075 107 55.075 107.1 55.075C107.2 55.075 107.4 54.975 107.5 55.075C107.7 55.075 107.8 55.275 107.8 55.475C107.7 55.575 107.6 55.675 107.4 55.775Z" fill="#91A5B3"/>
<path id="Vector_9" d="M103.7 66.575C111.929 66.575 118.6 59.9041 118.6 51.675C118.6 43.446 111.929 36.775 103.7 36.775C95.471 36.775 88.8 43.446 88.8 51.675C88.8 59.9041 95.471 66.575 103.7 66.575Z" stroke="#C3CED5" stroke-width="0.91"/>
<path id="Vector_10" d="M122.4 69.775C124.002 69.775 125.3 68.4766 125.3 66.875C125.3 65.2734 124.002 63.975 122.4 63.975C120.798 63.975 119.5 65.2734 119.5 66.875C119.5 68.4766 120.798 69.775 122.4 69.775Z" stroke="#C3CED5" stroke-width="0.91"/>
</g>
<g id="Signal">
<path id="Vector_11" d="M95.9891 26.828L96.2195 26.5016C99.1932 22.2888 105.497 22.46 108.237 26.828" stroke="#FF7A00" stroke-width="1.5" stroke-linecap="round"/>
<path id="Vector_12" opacity="0.8" d="M92.927 23.7659L93.2726 23.2764C97.7331 16.9573 107.188 17.2141 111.299 23.7659" stroke="#FF7A00" stroke-width="1.5" stroke-linecap="round"/>
<path id="Vector_13" opacity="0.5" d="M89.865 20.7041L90.3257 20.0513C96.2731 11.6259 108.88 11.9682 114.361 20.7041" stroke="#FF7A00" stroke-width="1.5" stroke-linecap="round"/>
<path id="Vector_14" opacity="0.2" d="M86.3657 17.4962L86.9292 16.6683C94.4647 5.59769 110.928 6.03833 117.861 17.4962" stroke="#FF7A00" stroke-width="1.5" stroke-linecap="round"/>
</g>
<g id="MotionSensor">
<path id="Vector_15" d="M54.8 27.575H59.7C64.2 27.575 67.9 31.275 67.9 35.775V71.475C67.9 75.975 64.2 79.675 59.7 79.675H54.8C50.3 79.675 46.6 75.975 46.6 71.475V35.775C46.6 31.275 50.2 27.575 54.8 27.575Z" fill="#F3F5F7"/>
<path id="Vector_16" d="M54.6 29.975H59.9C63 29.975 65.5 32.475 65.5 35.575V71.775C65.5 74.875 63 77.375 59.9 77.375H54.6C51.5 77.375 49 74.875 49 71.775V35.475C49 32.375 51.5 29.975 54.6 29.975Z" fill="#F3F5F7" stroke="#C3CED5"/>
<path id="Vector_17" d="M57.2 73.275C60.5689 73.275 63.3 70.5439 63.3 67.175C63.3 63.8061 60.5689 61.075 57.2 61.075C53.8311 61.075 51.1 63.8061 51.1 67.175C51.1 70.5439 53.8311 73.275 57.2 73.275Z" fill="#C3CED5"/>
<path id="Vector_18" d="M57.2 70.875C59.2435 70.875 60.9 69.2184 60.9 67.175C60.9 65.1315 59.2435 63.475 57.2 63.475C55.1565 63.475 53.5 65.1315 53.5 67.175C53.5 69.2184 55.1565 70.875 57.2 70.875Z" fill="#C3CED5" stroke="#91A5B3"/>
<path id="Vector_19" d="M57.5 57.775C58.5493 57.775 59.4 56.9243 59.4 55.875C59.4 54.8256 58.5493 53.975 57.5 53.975C56.4507 53.975 55.6 54.8256 55.6 55.875C55.6 56.9243 56.4507 57.775 57.5 57.775Z" fill="#19FFB0"/>
<path id="Vector_20" d="M57.5 51.275C58.5493 51.275 59.4 50.4243 59.4 49.375C59.4 48.3257 58.5493 47.475 57.5 47.475C56.4507 47.475 55.6 48.3257 55.6 49.375C55.6 50.4243 56.4507 51.275 57.5 51.275Z" fill="#C3CED5"/>
</g>
</g>
</g>
</g>
</svg>
