<svg width="148" height="92" viewBox="0 0 148 92" fill="none" xmlns="http://www.w3.org/2000/svg">
<g id="smartheating">
<g id="smartheating_2">
<g id="icon">
<g id="Thermostat">
<path id="Vector" d="M69 16.555H22C18.6863 16.555 16 19.2413 16 22.555V69.555C16 72.8687 18.6863 75.555 22 75.555H69C72.3137 75.555 75 72.8687 75 69.555V22.555C75 19.2413 72.3137 16.555 69 16.555Z" fill="white"/>
<path id="Vector_2" d="M67.39 20.165H23.61C21.4009 20.165 19.61 21.9559 19.61 24.165V67.945C19.61 70.1541 21.4009 71.945 23.61 71.945H67.39C69.5991 71.945 71.39 70.1541 71.39 67.945V24.165C71.39 21.9559 69.5991 20.165 67.39 20.165Z" fill="#2A353D"/>
<path id="Vector_3" d="M24.84 44.005L24.38 44.315C24.31 44.375 24.22 44.405 24.12 44.405C23.88 44.405 23.68 44.205 23.68 43.965C23.68 43.805 23.76 43.665 23.87 43.595L25.02 42.855C25.11 42.795 25.18 42.755 25.3 42.755C25.55 42.755 25.76 42.965 25.76 43.215V47.815C25.76 48.065 25.55 48.275 25.3 48.275C25.05 48.275 24.84 48.065 24.84 47.815V44.005ZM29.18 46.405C28.06 46.405 27.28 45.765 27.28 44.585C27.28 43.275 28.13 42.715 29.3 42.715C30.72 42.715 31.32 43.835 31.32 45.405C31.32 47.465 30.52 48.325 29.18 48.325C28.5 48.325 28.01 48.095 27.79 47.865C27.68 47.755 27.65 47.655 27.65 47.565C27.65 47.345 27.84 47.145 28.07 47.145C28.13 47.145 28.21 47.145 28.33 47.235C28.55 47.385 28.79 47.525 29.19 47.525C29.99 47.525 30.41 46.945 30.41 45.935C30.15 46.195 29.71 46.415 29.19 46.415L29.18 46.405ZM29.3 43.515C28.65 43.515 28.19 43.805 28.19 44.575C28.19 45.265 28.66 45.595 29.25 45.595C29.79 45.595 30.17 45.315 30.39 44.925C30.39 44.045 30 43.515 29.3 43.515Z" fill="#FF7A00"/>
<path id="Vector_4" d="M61.1 44.005L60.64 44.315C60.57 44.375 60.48 44.405 60.38 44.405C60.14 44.405 59.94 44.205 59.94 43.965C59.94 43.805 60.02 43.665 60.13 43.595L61.28 42.855C61.37 42.795 61.44 42.755 61.56 42.755C61.81 42.755 62.02 42.965 62.02 43.215V47.815C62.02 48.065 61.81 48.275 61.56 48.275C61.31 48.275 61.1 48.065 61.1 47.815V44.005ZM63.75 43.725C64.01 43.145 64.57 42.705 65.45 42.705C66.61 42.705 67.3 43.365 67.3 44.345C67.3 46.035 64.52 46.685 64.52 47.385H66.98C67.2 47.385 67.39 47.565 67.39 47.795C67.39 48.025 67.21 48.205 66.98 48.205H63.92C63.7 48.205 63.51 48.025 63.51 47.795C63.51 46.025 66.38 45.845 66.38 44.345C66.38 43.895 66.05 43.505 65.44 43.505C64.94 43.505 64.67 43.775 64.53 44.085C64.44 44.255 64.3 44.345 64.13 44.345C63.89 44.345 63.7 44.155 63.7 43.915C63.7 43.855 63.7 43.805 63.74 43.735L63.75 43.725Z" fill="#F3F5F7"/>
<path id="Vector_5" d="M31.05 23.775H25.03C24.6986 23.775 24.43 24.0436 24.43 24.375C24.43 24.7064 24.6986 24.975 25.03 24.975H31.05C31.3814 24.975 31.65 24.7064 31.65 24.375C31.65 24.0436 31.3814 23.775 31.05 23.775Z" fill="#91A5B3"/>
<path id="Vector_6" d="M65.97 23.775H59.95C59.6186 23.775 59.35 24.0436 59.35 24.375C59.35 24.7064 59.6186 24.975 59.95 24.975H65.97C66.3014 24.975 66.57 24.7064 66.57 24.375C66.57 24.0436 66.3014 23.775 65.97 23.775Z" fill="#91A5B3"/>
<path id="Vector_7" d="M46.1 55.785C51.1424 55.785 55.23 51.6974 55.23 46.655C55.23 41.6126 51.1424 37.525 46.1 37.525C41.0576 37.525 36.97 41.6126 36.97 46.655C36.97 51.6974 41.0576 55.785 46.1 55.785Z" fill="#C3CED5" stroke="white"/>
</g>
<g id="TRV">
<path id="Vector_8" d="M95.83 66.5908H102.2L101 85.553C99.12 86.8332 97.99 87.1832 95.83 87.1532V66.5908Z" fill="#435460"/>
<path id="Vector_9" d="M93.1 64.7806H104.93V74.7618C104.93 75.7819 104.1 76.602 103.09 76.602H94.95C93.93 76.602 93.11 75.7819 93.11 74.7618V64.7806H93.1Z" fill="#435460"/>
<path id="Vector_10" d="M106.38 53.8593H91.64C89.4309 53.8593 87.64 55.6504 87.64 57.8598V60.7802C87.64 62.9896 89.4309 64.7806 91.64 64.7806H106.38C108.589 64.7806 110.38 62.9896 110.38 60.7802V57.8598C110.38 55.6504 108.589 53.8593 106.38 53.8593Z" fill="#F3F5F7"/>
<path id="Vector_11" d="M110.02 16.555H88C85.7909 16.555 84 18.3461 84 20.5555V58.0498C84 60.2592 85.7909 62.0503 88 62.0503H110.02C112.229 62.0503 114.02 60.2592 114.02 58.0498V20.5555C114.02 18.3461 112.229 16.555 110.02 16.555Z" fill="white"/>
<path id="Vector_12" d="M105.66 34.7471H92.37C91.2654 34.7471 90.37 35.6427 90.37 36.7473V52.7692C90.37 53.8739 91.2654 54.7695 92.37 54.7695H105.66C106.765 54.7695 107.66 53.8739 107.66 52.7692V36.7473C107.66 35.6427 106.765 34.7471 105.66 34.7471Z" fill="#C3CED5"/>
<path id="Vector_13" d="M95.08 41.7878L94.01 42.5278C93.94 42.5778 93.85 42.6078 93.73 42.6078C93.47 42.6078 93.25 42.3878 93.25 42.1278C93.25 41.9478 93.33 41.8078 93.48 41.7078L95.26 40.4878C95.37 40.4178 95.44 40.3778 95.57 40.3778C95.85 40.3778 96.06 40.5978 96.06 40.8678V48.1478C96.06 48.4278 95.84 48.6378 95.57 48.6378C95.3 48.6378 95.08 48.4178 95.08 48.1478V41.7778V41.7878ZM100.58 45.7578C98.97 45.7578 97.82 44.8578 97.82 43.0578C97.82 41.1178 99.01 40.3078 100.7 40.3078C102.76 40.3078 103.62 41.9778 103.62 44.3278C103.62 47.4378 102.48 48.7178 100.54 48.7178C99.56 48.7178 98.85 48.3578 98.54 48.0378C98.42 47.9078 98.38 47.7978 98.38 47.6778C98.38 47.4178 98.6 47.1978 98.86 47.1978C98.96 47.1978 99.05 47.2178 99.17 47.3078C99.53 47.5678 99.95 47.7878 100.54 47.7878C102.03 47.7878 102.62 46.5678 102.62 44.8478C102.27 45.2878 101.54 45.7578 100.59 45.7578H100.58ZM100.7 41.2478C99.62 41.2478 98.83 41.7378 98.83 43.0578C98.83 44.2678 99.63 44.8378 100.63 44.8378C101.55 44.8378 102.19 44.2978 102.57 43.6378C102.57 42.2178 101.9 41.2478 100.7 41.2478Z" fill="#2A353D"/>
<path id="Vector_14" d="M104.47 40.6477C104.779 40.6477 105.03 40.397 105.03 40.0877C105.03 39.7784 104.779 39.5277 104.47 39.5277C104.161 39.5277 103.91 39.7784 103.91 40.0877C103.91 40.397 104.161 40.6477 104.47 40.6477Z" fill="#2A353D"/>
</g>
</g>
</g>
</g>
</svg>
